
<svg
  version="1.0"
  xmlns="http://www.w3.org/2000/svg"
  xmlns:xlink="http://www.w3.org/1999/xlink"
  width="2400"
  height="1800"
>
  
  <rect
    x="0"
    y="0"
    width="100%"
    height="100%"
    fill="#f4ebe4"
    fill-opacity="1"
  ></rect>
  <svg
    version="1.0"
    xmlns="http://www.w3.org/2000/svg"
    xmlns:xlink="http://www.w3.org/1999/xlink"
    x="0"
    y="0"
    width="2400"
    height="1800"
    viewBox="0 0 340.000000 250.000000"
    preserveAspectRatio="xMidYMid meet"
    color-interpolation-filters="sRGB"
  >
    <defs><linearGradient id="92" x1="0%" y1="0%" x2="100%" y2="0%"><stop offset="0%" stop-color="#fa71cd"/> <stop offset="100%" stop-color="#9b59b6"/></linearGradient><linearGradient id="93" x1="0%" y1="0%" x2="100%" y2="0%"><stop offset="0%" stop-color="#f9d423"/> <stop offset="100%" stop-color="#f83600"/></linearGradient><linearGradient id="94" x1="0%" y1="0%" x2="100%" y2="0%"><stop offset="0%" stop-color="#0064d2"/> <stop offset="100%" stop-color="#1cb0f6"/></linearGradient><linearGradient id="95" x1="0%" y1="0%" x2="100%" y2="0%"><stop offset="0%" stop-color="#f00978"/> <stop offset="100%" stop-color="#3f51b1"/></linearGradient><linearGradient id="96" x1="0%" y1="0%" x2="100%" y2="0%"><stop offset="0%" stop-color="#7873f5"/> <stop offset="100%" stop-color="#ec77ab"/></linearGradient><linearGradient id="97" x1="0%" y1="0%" x2="100%" y2="0%"><stop offset="0%" stop-color="#f9d423"/> <stop offset="100%" stop-color="#e14fad"/></linearGradient><linearGradient id="98" x1="0%" y1="0%" x2="100%" y2="0%"><stop offset="0%" stop-color="#009efd"/> <stop offset="100%" stop-color="#2af598"/></linearGradient><linearGradient id="99" x1="0%" y1="0%" x2="100%" y2="0%"><stop offset="0%" stop-color="#ffcc00"/> <stop offset="100%" stop-color="#00b140"/></linearGradient><linearGradient id="100" x1="0%" y1="0%" x2="100%" y2="0%"><stop offset="0%" stop-color="#d51007"/> <stop offset="100%" stop-color="#ff8177"/></linearGradient><linearGradient id="102" x1="0%" y1="0%" x2="100%" y2="0%"><stop offset="0%" stop-color="#a2b6df"/> <stop offset="100%" stop-color="#0c3483"/></linearGradient><linearGradient id="103" x1="0%" y1="0%" x2="100%" y2="0%"><stop offset="0%" stop-color="#7ac5d8"/> <stop offset="100%" stop-color="#eea2a2"/></linearGradient><linearGradient id="104" x1="0%" y1="0%" x2="100%" y2="0%"><stop offset="0%" stop-color="#00ecbc"/> <stop offset="100%" stop-color="#007adf"/></linearGradient><linearGradient id="105" x1="0%" y1="0%" x2="100%" y2="0%"><stop offset="0%" stop-color="#b88746"/> <stop offset="100%" stop-color="#fdf5a6"/></linearGradient></defs> <g class="imagesvg isNoFont" transform="translate(140,90.88815689086914)"><g><rect fill="#1b4a9c" fill-opacity="0" stroke-width="2" x="0" y="0" width="60" height="68.22368271439292" class="image-rect"/> <svg filter="url(#colors9471281818)" x="0" y="0" width="60" height="68.22368271439292" filtersec="colorsf9704825580" class="image-svg-svg primary" style="overflow: visible;"><svg xmlns="http://www.w3.org/2000/svg" viewBox="7.818452835083008 2.008998394012451 84.41084289550781 95.98029327392578" x="0px" y="0px"><path d="M65.51,24.35A16.29,16.29,0,1,0,49.22,40.64,16.31,16.31,0,0,0,65.51,24.35Zm-27.57,0A11.29,11.29,0,1,1,49.22,35.64,11.3,11.3,0,0,1,37.93,24.35Z"/><path d="M86.49,66.37a5,5,0,0,0-7,0L68.38,77.48l-4.2-4.2a5,5,0,0,0-7,0l-4.28,4.28a5,5,0,0,0,0,7l12,12a5,5,0,0,0,7,0l18.9-18.9a5,5,0,0,0,0-7Zm-16,24.51L68.41,93l-12-11.92,4.22-4.28,6,6a2.5,2.5,0,0,0,3.54,0L83,69.94l4.25,4.18Z"/><path d="M49.22,88.12H32.8V74.57A39.65,39.65,0,0,0,22.32,47.79,36.36,36.36,0,0,1,15.57,9.24a3.63,3.63,0,0,1,4.9-1.89,3.75,3.75,0,0,1,1.75,4.8A29,29,0,0,0,20,23.23a28.82,28.82,0,0,0,25.52,29,30.18,30.18,0,0,0,7.34,0,28.82,28.82,0,0,0,25.52-29,29,29,0,0,0-2.19-11.08A3.75,3.75,0,0,1,78,7.35a3.63,3.63,0,0,1,4.9,1.89,36.37,36.37,0,0,1-6.75,38.55,40.33,40.33,0,0,0-8.77,15.34,2.5,2.5,0,1,0,4.78,1.46,35.29,35.29,0,0,1,7.68-13.42A41.37,41.37,0,0,0,87.49,7.32,8.63,8.63,0,0,0,75.85,2.83,8.8,8.8,0,0,0,71.6,14.05a24,24,0,0,1,1.82,9.18,23.87,23.87,0,0,1-21.13,24,25.06,25.06,0,0,1-6.12,0A23.87,23.87,0,0,1,25,23.23a24,24,0,0,1,1.82-9.18A8.8,8.8,0,0,0,22.6,2.83,8.63,8.63,0,0,0,11,7.32a41.37,41.37,0,0,0,7.67,43.84A34.67,34.67,0,0,1,27.8,74.57V89.18a4,4,0,0,0,3.94,3.94H49.22a2.5,2.5,0,0,0,0-5Z"/></svg></svg> <defs><filter id="colors9471281818"><feColorMatrix type="matrix" values="0 0 0 0 0.91015625  0 0 0 0 0.578125  0 0 0 0 0.35546875  0 0 0 1 0" class="icon-feColorMatrix "/></filter> <filter id="colorsf9704825580"><feColorMatrix type="matrix" values="0 0 0 0 0.99609375  0 0 0 0 0.99609375  0 0 0 0 0.99609375  0 0 0 1 0" class="icon-fecolormatrix"/></filter> <filter id="colorsb3495556504"><feColorMatrix type="matrix" values="0 0 0 0 0  0 0 0 0 0  0 0 0 0 0  0 0 0 1 0" class="icon-fecolormatrix"/></filter></defs></g></g><defs v-gra="od"/>
  </svg>
</svg>


